<svg width="24" height="24" viewBox="0 0 24 24" fill="none" xmlns="http://www.w3.org/2000/svg">
<g id="Hand">
<path id="Vector" d="M24 16.4209V8.98235H22.35V7.43851H19.2V5.89467H12.75V1.54384H11.25V0H7.95V1.54384H6.45V10.5262H4.8V8.98235H1.65V10.5262H0V13.4735H1.65V15.0174H3.3V17.9647H4.95V19.5085H6.6V21.0524H8.25V23.9997H16.2V22.4559H17.85V23.9997H21V19.5085H22.65V16.5612L24 16.4209Z" fill="white"/>
<g id="Group">
<path id="Vector_2" d="M4.79996 11.9297H6.44996V13.4735H7.94996V1.54384H11.25V10.5262H12.75V7.43851H16.05V10.5262H17.55V7.43851H19.2V6.03502H12.75V1.54384H11.25V0H7.94996V1.54384H6.44996V10.5262H4.79996V8.98235H1.64996V10.5262H4.79996V11.9297Z" fill="black"/>
<path id="Vector_3" d="M20.8499 19.5087H19.1999V13.4736H17.5499V19.5087H19.1999V22.456H17.5499V23.9998H20.8499V19.5087H22.3499V16.421H20.8499V19.5087Z" fill="black"/>
<path id="Vector_4" d="M22.3501 8.98207V7.43823H19.2001V10.5259H20.8501V8.98207H22.3501V16.4206H24.0001V8.98207H22.3501Z" fill="black"/>
<path id="Vector_5" d="M3.15 15.0174V13.4736H1.65V10.5262H0V13.4736H1.65V15.0174H3.15Z" fill="black"/>
<path id="Vector_6" d="M17.6999 20.9119H16.0499V22.4557H17.6999V20.9119Z" fill="black"/>
<path id="Vector_7" d="M11.25 19.5087H12.75V13.4736H11.25V19.5087Z" fill="black"/>
<path id="Vector_8" d="M14.3999 19.5087H16.0499V13.4736H14.3999V19.5087Z" fill="black"/>
<path id="Vector_9" d="M9.5999 22.4562V20.9124H7.9499V19.5089H6.4499V17.965H4.7999V15.0177H3.1499V17.965H4.7999V19.5089H6.4499V20.9124H7.9499V24.0001H15.8999V22.4562H9.5999Z" fill="black"/>
</g>
</g>
</svg>
